<svg width="44" height="44" viewBox="0 0 44 44" fill="none" xmlns="http://www.w3.org/2000/svg">
<path d="M13 6.10352e-05C5.83248 6.10352e-05 0 5.83254 0 13.0001V31.0001C0 38.1676 5.83248 44.0001 13 44.0001H31C38.1675 44.0001 44 38.1676 44 31.0001V13.0001C44 5.83254 38.1675 6.10352e-05 31 6.10352e-05H13ZM13 2.00006H31C37.0865 2.00006 42 6.91358 42 13.0001V31.0001C42 37.0865 37.0865 42.0001 31 42.0001H13C6.91352 42.0001 2 37.0865 2 31.0001V13.0001C2 6.91358 6.91352 2.00006 13 2.00006ZM34 8.00006C33.4696 8.00006 32.9609 8.21078 32.5858 8.58585C32.2107 8.96092 32 9.46963 32 10.0001C32 10.5305 32.2107 11.0392 32.5858 11.4143C32.9609 11.7893 33.4696 12.0001 34 12.0001C34.5304 12.0001 35.0391 11.7893 35.4142 11.4143C35.7893 11.0392 36 10.5305 36 10.0001C36 9.46963 35.7893 8.96092 35.4142 8.58585C35.0391 8.21078 34.5304 8.00006 34 8.00006ZM22 11.0001C15.9367 11.0001 11 15.9368 11 22.0001C11 28.0633 15.9367 33.0001 22 33.0001C28.0633 33.0001 33 28.0633 33 22.0001C33 15.9368 28.0633 11.0001 22 11.0001ZM22 13.0001C26.9824 13.0001 31 17.0177 31 22.0001C31 26.9825 26.9824 31.0001 22 31.0001C17.0176 31.0001 13 26.9825 13 22.0001C13 17.0177 17.0176 13.0001 22 13.0001Z" fill="black"/>
</svg>
