<svg width="46" height="46" viewBox="0 0 46 46" fill="none" xmlns="http://www.w3.org/2000/svg">
<path d="M23 -6.10352e-05C10.3095 -6.10352e-05 0 10.3095 0 22.9999C0 27.079 1.11869 30.8858 2.98438 34.2089L0.0371094 44.7304C-0.00997593 44.8988 -0.0121034 45.0765 0.0309391 45.246C0.0739816 45.4154 0.16069 45.5706 0.28242 45.6961C0.404149 45.8216 0.556646 45.913 0.724706 45.9612C0.892765 46.0093 1.07052 46.0126 1.24023 45.9706L12.2109 43.2519C15.4346 44.9729 19.0926 45.9999 23 45.9999C35.6905 45.9999 46 35.6904 46 22.9999C46 10.3095 35.6905 -6.10352e-05 23 -6.10352e-05ZM23 1.99994C34.6095 1.99994 44 11.3904 44 22.9999C44 34.6095 34.6095 43.9999 23 43.9999C19.278 43.9999 15.7921 43.0296 12.7617 41.3339C12.5401 41.2101 12.2796 41.1752 12.0332 41.2363L2.42578 43.6171L5.00195 34.4257C5.03882 34.2958 5.04899 34.1598 5.03188 34.0259C5.01476 33.8919 4.97069 33.7629 4.90234 33.6464C3.06069 30.5235 2 26.89 2 22.9999C2 11.3904 11.3905 1.99994 23 1.99994ZM14.6426 10.9999C14.0015 10.9999 13.086 11.2384 12.334 12.0488C11.8823 12.5355 10 14.3694 10 17.5937C10 20.9552 12.3314 23.8558 12.6133 24.2285H12.6152V24.2304C12.5885 24.1953 12.973 24.7521 13.4863 25.4199C13.9996 26.0876 14.7174 26.9646 15.6191 27.914C17.4226 29.8128 19.9583 32.0074 23.1055 33.3495C24.5548 33.9667 25.6982 34.3394 26.5645 34.6113C28.1698 35.1154 29.6321 35.0387 30.7305 34.8769C31.5526 34.7558 32.4569 34.3611 33.3516 33.7949C34.2463 33.2287 35.1231 32.5247 35.5098 31.455C35.7868 30.6882 35.9276 29.9795 35.9785 29.3964C36.004 29.1049 36.0072 28.8475 35.9883 28.6093C35.9693 28.3711 35.9896 28.1886 35.7676 27.8242C35.302 27.0597 34.7748 27.0398 34.2246 26.7675C33.9189 26.6162 33.0487 26.1913 32.1758 25.7753C31.3039 25.3599 30.5489 24.9919 30.084 24.8261C29.7902 24.7204 29.4316 24.5683 28.9141 24.6269C28.3966 24.6855 27.8855 25.0589 27.5879 25.4999C27.3058 25.918 26.1704 27.2583 25.8242 27.6523C25.8196 27.6495 25.8497 27.6633 25.7129 27.5956C25.2848 27.3838 24.7612 27.2036 23.9863 26.7949C23.2115 26.3861 22.2423 25.7826 21.1816 24.8476V24.8456C19.603 23.4559 18.4973 21.711 18.1484 21.1249C18.1719 21.097 18.1456 21.1308 18.1953 21.082L18.1973 21.08C18.5538 20.7289 18.8697 20.3095 19.1367 20.0019C19.5153 19.5658 19.6823 19.1814 19.8633 18.8222C20.224 18.1064 20.0231 17.3187 19.8145 16.9042V16.9023C19.8289 16.931 19.7016 16.6501 19.5645 16.3261C19.4269 16.0012 19.2517 15.58 19.0645 15.1308C18.69 14.2324 18.272 13.2249 18.0234 12.6347V12.6328C17.7306 11.9376 17.3344 11.4368 16.8164 11.1953C16.2984 10.9537 15.8408 11.0223 15.8223 11.0214H15.8203C15.4507 11.0044 15.045 10.9999 14.6426 10.9999ZM14.6426 12.9999C15.0281 12.9999 15.4082 13.0046 15.7266 13.0195C16.0541 13.0358 16.0337 13.0371 15.9707 13.0078C15.9067 12.9779 15.9935 12.9682 16.1797 13.4101C16.4231 13.9879 16.8432 14.9992 17.2188 15.9003C17.4065 16.3509 17.5823 16.7738 17.7227 17.1054C17.863 17.4371 17.9391 17.6222 18.0273 17.7988V17.8007L18.0293 17.8027C18.1158 17.9734 18.1082 17.8641 18.0781 17.9238C17.8671 18.3426 17.8385 18.4454 17.625 18.6913C17.3 19.0658 16.9685 19.4833 16.793 19.6562C16.6394 19.807 16.3624 20.042 16.1895 20.5019C16.0162 20.9625 16.0971 21.5945 16.375 22.0663C16.745 22.6945 17.9644 24.6792 19.8594 26.3476C21.0528 27.3996 22.1646 28.0959 23.0527 28.5644C23.9409 29.0329 24.6643 29.3065 24.8262 29.3867C25.2105 29.5769 25.6307 29.7246 26.1191 29.666C26.6076 29.6073 27.0288 29.3109 27.2969 29.0078L27.2988 29.0058C27.6556 28.6013 28.7158 27.3907 29.2246 26.6445C29.2462 26.6521 29.2391 26.6462 29.4082 26.707V26.7089H29.4102C29.4874 26.7364 30.4543 27.1692 31.3164 27.58C32.1785 27.9908 33.0536 28.4178 33.3379 28.5585C33.7482 28.7616 33.9421 28.8938 33.9922 28.8945C33.9956 28.9825 33.999 29.0778 33.9863 29.2226C33.9513 29.6242 33.8439 30.1802 33.6289 30.7753C33.5236 31.0667 32.975 31.6676 32.2832 32.1054C31.5914 32.5432 30.7493 32.8525 30.4375 32.8984C29.4999 33.0365 28.3867 33.087 27.1641 32.7031C26.3163 32.437 25.2593 32.0925 23.8906 31.5097C21.1148 30.3259 18.7556 28.3115 17.0703 26.537C16.2277 25.6498 15.5526 24.824 15.0723 24.1992C14.5929 23.5755 14.3835 23.251 14.209 23.0214L14.207 23.0195C13.8972 22.6097 12 19.9708 12 17.5937C12 15.0779 13.1685 14.0914 13.8008 13.4101C14.1327 13.0524 14.4956 12.9999 14.6426 12.9999Z" fill="black"/>
</svg>
